<svg width="16" height="17" viewBox="0 0 16 17" fill="none" xmlns="http://www.w3.org/2000/svg">
<path d="M8.16321 6.66235V9.81586H12.5565C12.3636 10.8301 11.7847 11.6888 10.9164 12.2662L13.5658 14.3167C15.1094 12.8955 16 10.8079 16 8.32806C16 7.75063 15.948 7.19535 15.8515 6.66242L8.16321 6.66235Z" fill="#4285F4"/>
<path d="M3.58822 9.69281L2.99069 10.1491L0.87561 11.7924C2.21885 14.4499 4.9719 16.2858 8.16299 16.2858C10.367 16.2858 12.2149 15.5604 13.5656 14.3167L10.9163 12.2662C10.1889 12.7548 9.2613 13.0509 8.16299 13.0509C6.04057 13.0509 4.23722 11.6222 3.59155 9.6975L3.58822 9.69281Z" fill="#34A853"/>
<path d="M0.875639 4.49344C0.319077 5.58897 0 6.82525 0 8.1429C0 9.46055 0.319077 10.6968 0.875639 11.7923C0.875639 11.7997 3.59185 9.68998 3.59185 9.68998C3.42858 9.20141 3.33208 8.68326 3.33208 8.14283C3.33208 7.60234 3.42858 7.0842 3.59185 6.59562L0.875639 4.49344Z" fill="#FBBC05"/>
<path d="M8.16319 3.24236C9.3654 3.24236 10.4341 3.6569 11.2875 4.45639L13.6252 2.12459C12.2077 0.806939 10.3673 0 8.16319 0C4.9721 0 2.21885 1.82845 0.87561 4.49341L3.59173 6.59579C4.23735 4.67108 6.0407 3.24236 8.16319 3.24236Z" fill="#EA4335"/>
</svg>
