<svg width="91" height="24" viewBox="0 0 91 24" fill="none" xmlns="http://www.w3.org/2000/svg">
<path d="M5.31628 22.6636C0.887613 18.6155 -4.90595 8.41541 7.34915 0C11.6544 4.47754 17.2751 15.2789 5.31628 22.6636Z" fill="#422AFB" fill-opacity="0.5"/>
<path d="M5.31177 22.6231C11.0457 24.4193 22.8109 24.317 24 9.53775C17.9544 8.06273 5.75296 8.61479 5.31177 22.6231Z" fill="#422AFB" fill-opacity="0.5"/>
<path d="M5.31322 22.6535C11.2715 21.8632 21.8871 16.8099 16.6839 2.91864C10.5798 4.13131 -0.240076 9.77594 5.31322 22.6535Z" fill="#422AFB" fill-opacity="0.5"/>
<path d="M32.5 18V6.552H28.072V5.4H38.26V6.552H33.832V18H32.5ZM43.7778 18.09C42.9738 18.09 42.2718 17.94 41.6718 17.64C41.0718 17.34 40.6038 16.89 40.2678 16.29C39.9438 15.69 39.7818 14.94 39.7818 14.04V8.55H41.0598V13.896C41.0598 14.904 41.3058 15.666 41.7978 16.182C42.3018 16.686 43.0038 16.938 43.9038 16.938C44.5638 16.938 45.1338 16.806 45.6138 16.542C46.1058 16.266 46.4778 15.87 46.7298 15.354C46.9938 14.838 47.1258 14.22 47.1258 13.5V8.55H48.4038V18H47.1798V15.408L47.3778 15.876C47.0778 16.572 46.6098 17.118 45.9738 17.514C45.3498 17.898 44.6178 18.09 43.7778 18.09ZM51.9656 18V4.644H53.2436V18H51.9656ZM56.7996 18V8.55H58.0776V18H56.7996ZM57.4476 6.462C57.1836 6.462 56.9616 6.372 56.7816 6.192C56.6016 6.012 56.5116 5.796 56.5116 5.544C56.5116 5.292 56.6016 5.082 56.7816 4.914C56.9616 4.734 57.1836 4.644 57.4476 4.644C57.7116 4.644 57.9336 4.728 58.1136 4.896C58.2936 5.064 58.3836 5.274 58.3836 5.526C58.3836 5.79 58.2936 6.012 58.1136 6.192C57.9456 6.372 57.7236 6.462 57.4476 6.462ZM66.5116 18.09C65.6956 18.09 64.9576 17.904 64.2976 17.532C63.6376 17.148 63.1096 16.602 62.7136 15.894C62.3296 15.174 62.1376 14.298 62.1376 13.266C62.1376 12.234 62.3296 11.364 62.7136 10.656C63.0976 9.936 63.6196 9.39 64.2796 9.018C64.9396 8.646 65.6836 8.46 66.5116 8.46C67.4116 8.46 68.2156 8.664 68.9236 9.072C69.6436 9.468 70.2076 10.032 70.6156 10.764C71.0236 11.484 71.2276 12.318 71.2276 13.266C71.2276 14.226 71.0236 15.066 70.6156 15.786C70.2076 16.506 69.6436 17.07 68.9236 17.478C68.2156 17.886 67.4116 18.09 66.5116 18.09ZM61.6336 21.492V8.55H62.8576V11.394L62.7316 13.284L62.9116 15.192V21.492H61.6336ZM66.4216 16.956C67.0936 16.956 67.6936 16.806 68.2216 16.506C68.7496 16.194 69.1696 15.762 69.4816 15.21C69.7936 14.646 69.9496 13.998 69.9496 13.266C69.9496 12.534 69.7936 11.892 69.4816 11.34C69.1696 10.788 68.7496 10.356 68.2216 10.044C67.6936 9.732 67.0936 9.576 66.4216 9.576C65.7496 9.576 65.1436 9.732 64.6036 10.044C64.0756 10.356 63.6556 10.788 63.3436 11.34C63.0436 11.892 62.8936 12.534 62.8936 13.266C62.8936 13.998 63.0436 14.646 63.3436 15.21C63.6556 15.762 64.0756 16.194 64.6036 16.506C65.1436 16.806 65.7496 16.956 66.4216 16.956Z" fill="#1B254B"/>
<path d="M74.712 5.728H77.496V6.584H74.712V5.728ZM74.792 8.128H77.952V9H73.752V3.4H77.84V4.272H74.792V8.128ZM79.1114 9V3.4H81.4154C81.9114 3.4 82.3354 3.48 82.6874 3.64C83.0447 3.8 83.3194 4.02933 83.5114 4.328C83.7034 4.62667 83.7994 4.98133 83.7994 5.392C83.7994 5.80267 83.7034 6.15733 83.5114 6.456C83.3194 6.74933 83.0447 6.976 82.6874 7.136C82.3354 7.29067 81.9114 7.368 81.4154 7.368H79.6874L80.1514 6.896V9H79.1114ZM82.7754 9L81.3594 6.968H82.4714L83.8954 9H82.7754ZM80.1514 7.008L79.6874 6.512H81.3674C81.826 6.512 82.17 6.41333 82.3994 6.216C82.634 6.01867 82.7514 5.744 82.7514 5.392C82.7514 5.03467 82.634 4.76 82.3994 4.568C82.17 4.376 81.826 4.28 81.3674 4.28H79.6874L80.1514 3.768V7.008ZM84.9629 9V3.4H87.2669C87.7629 3.4 88.1869 3.48 88.5389 3.64C88.8963 3.8 89.1709 4.02933 89.3629 4.328C89.5549 4.62667 89.6509 4.98133 89.6509 5.392C89.6509 5.80267 89.5549 6.15733 89.3629 6.456C89.1709 6.75467 88.8963 6.984 88.5389 7.144C88.1869 7.304 87.7629 7.384 87.2669 7.384H85.5389L86.0029 6.896V9H84.9629ZM86.0029 7.008L85.5389 6.504H87.2189C87.6776 6.504 88.0216 6.408 88.2509 6.216C88.4856 6.01867 88.6029 5.744 88.6029 5.392C88.6029 5.03467 88.4856 4.76 88.2509 4.568C88.0216 4.376 87.6776 4.28 87.2189 4.28H85.5389L86.0029 3.768V7.008Z" fill="#1B254B"/>
</svg>
